# xmcd CD database file
#
# Track frame offsets:
#	182
#	17917
#	31972
#	43547
#	68640
#	82017
#	96870
#	113087
#	133630
#	149427
#
# Disc length: 2208 seconds
#
# Revision: 6
# Processed by: cddbd v1.5.2PL0 Copyright (c) Steve Scherf et al.
# Submitted via: CDex 1.51
#
DISCID=84089e0a
DTITLE=Little Feat - Dixie Chicken
DYEAR=1973
DGENRE=Rock
TTITLE0=Dixie Chicken
TTITLE1=Two Trains
TTITLE2=Roll Um Easy
TTITLE3=On Your Way Down
TTITLE4=Kiss It Off
TTITLE5=Fool Yourself
TTITLE6=Walkin All Night
TTITLE7=Fat Man In The Bathtub
TTITLE8=Juliette
TTITLE9=Lafayette Railroad
EXTD=YEAR: 1973
EXTT0=
EXTT1=
EXTT2=
EXTT3=
EXTT4=
EXTT5=
EXTT6=
EXTT7=
EXTT8=
EXTT9=
PLAYORDER=
